PathFileType	3	(X/Y/Z)	C:\Users\koon_\Desktop\
DataRate	CameraRate	NumFrames	NumMarkers	Units	OrigDataRate	OrigDataStartFrame	OrigNumFrames
100.0	100.0	4	27	mm	100.0	947	3786	
Frame#	Time	get:LFHD			get:RFHD			get:LBHD			get:RBHD			get:C7			get:T10			get:CLAV			get:STRN			get:RBAK			get:LSHO			get:LUPA			get:LELB			get:LFRA			get:LWRA			get:LWRB			get:LFIN			get:RSHO			get:RUPA			get:RELB			get:RFRA			get:RWRA			get:RWRB			get:RFIN			get:LASI			get:RASI			get:LPSI			get:RPSI			
		X1	Y1	Z1	X2	Y2	Z2	X3	Y3	Z3	X4	Y4	Z4	X5	Y5	Z5	X6	Y6	Z6	X7	Y7	Z7	X8	Y8	Z8	X9	Y9	Z9	X10	Y10	Z10	X11	Y11	Z11	X12	Y12	Z12	X13	Y13	Z13	X14	Y14	Z14	X15	Y15	Z15	X16	Y16	Z16	X17	Y17	Z17	X18	Y18	Z18	X19	Y19	Z19	X20	Y20	Z20	X21	Y21	Z21	X22	Y22	Z22	X23	Y23	Z23	X24	Y24	Z24	X25	Y25	Z25	X26	Y26	Z26	X27	Y27	Z27	
947	9.46	107.70495	1576.917	-92.149628	-50.004002	1567.3683	-94.163704	103.3709	1564.948	-216.52852	-22.641787	1566.0183	-236.9816	47.345016	1375.5822	-246.75786	15.149334	1124.9515	-273.62448	41.290333	1310.6525	-65.461754	34.052525	1122.8079	-17.565262	-45.851433	1318.4192	-273.43356	203.77063	1350.3969	-160.03674	250.70482	1202.6702	-149.39479	268.58783	1022.6052	-176.66859	242.49673	929.41516	-95.772934	220.93564	836.25671	-81.164085	281.03577	829.47235	-115.23026	271.0983	752.81653	-65.705482	-69.850288	1401.8939	-180.50241	-202.32455	1461.5394	-118.84213	-297.17255	1497.6958	-85.385406	-203.62924	1519.2098	-64.037712	-90.699936	1585.0161	8.9993801	-140.61909	1630.1271	30.735088	-54.621483	1661.1039	23.856203	157.69319	929.28394	-78.242981	-119.96418	914.96594	-76.453094	70.652298	960.04541	-278.53009	-37.930752	950.31946	-277.7074
948	9.47	108.1546	1576.8854	-92.554504	-49.582111	1567.4612	-94.67466	103.86407	1564.8397	-216.8638	-22.100712	1566.0021	-237.37025	47.569263	1375.582	-247.08075	15.072048	1124.886	-273.78625	41.420647	1310.7	-65.720924	33.986649	1122.8677	-17.65736	-45.664925	1318.5612	-273.75305	203.96356	1350.1251	-160.44583	250.70206	1202.3634	-149.75317	268.37903	1022.2713	-177.00999	242.2688	929.06726	-96.159531	220.59537	835.8927	-81.65213	280.68652	829.09857	-115.69711	270.7421	752.4278	-66.28186	-69.642838	1402.0034	-180.61073	-201.85805	1461.4492	-117.91687	-296.21695	1498.6921	-84.689957	-202.597	1517.3911	-60.217091	-90.190804	1578.0559	17.577471	-139.5558	1623.7637	38.884537	-52.588665	1652.6144	35.915295	157.63852	929.3194	-78.313301	-120.02034	915.0119	-76.510223	70.631599	960.05316	-278.59396	-37.978676	950.36121	-277.83578
949	9.48	108.6301	1576.8383	-92.905701	-52.558414	1568.0916	-98.869362	104.38126	1564.8136	-217.1904	-21.545521	1566.0499	-237.80225	47.778549	1375.5555	-247.50929	14.989609	1124.9095	-274.11002	41.605282	1310.7327	-65.96006	33.968296	1122.9335	-17.810518	-45.485981	1318.7075	-274.05515	204.16338	1349.8291	-160.85085	250.72385	1202.0233	-150.08768	268.1908	1021.9078	-177.39828	242.03734	928.7124	-96.551292	220.27573	835.52393	-82.06382	280.34625	828.71887	-116.14383	270.26685	751.97821	-66.87204	-69.417297	1402.1208	-180.72194	-201.37135	1461.2582	-116.78925	-295.24289	1498.985	-83.56813	-201.74803	1515.2407	-56.511978	-89.878395	1570.6853	25.658545	-138.66202	1616.8683	47.609703	-50.866371	1643.6052	47.452404	157.59189	929.3399	-78.340736	-120.06582	915.01508	-76.590118	70.601151	960.08679	-278.69336	-38.058506	950.37946	-277.88077
950	9.49	109.08656	1576.7301	-93.208	-52.001656	1568.1499	-99.26104	104.97107	1564.7263	-217.51178	-20.982464	1566.3589	-238.47072	47.969933	1375.4336	-247.70534	14.874497	1124.8867	-274.34543	41.758461	1310.7444	-66.184219	33.92329	1123.0084	-17.887577	-45.335506	1318.8154	-274.33984	204.39116	1349.5446	-161.22325	250.74402	1201.6295	-150.50252	267.95752	1021.525	-177.73062	241.76576	928.30499	-96.930664	219.93738	835.14056	-82.552177	279.96805	828.2804	-116.72689	269.89532	751.57294	-67.381317	-69.195282	1402.1918	-180.76913	-200.94675	1461.0201	-115.57069	-294.24988	1499.2013	-82.285088	-200.96089	1512.7374	-52.839558	-89.707924	1562.8721	33.382469	-137.75485	1609.4614	56.490108	-49.41087	1634.1091	58.506462	157.5554	929.36951	-78.449516	-120.12553	915.04797	-76.708466	70.604439	960.10797	-278.82608	-38.077778	950.43097	-277.99591
